<svg id="visual" viewBox="0 0 960 540" width="960" height="540" xmlns="http://www.w3.org/2000/svg" xmlns:xlink="http://www.w3.org/1999/xlink" version="1.1"><rect x="0" y="0" width="960" height="540" fill="#1c1f2e"></rect><g transform="translate(487.8944238347049 272.04759434460516)"><path d="M61.3 -101C77.6 -96.8 87.7 -76.6 92.8 -57.2C97.9 -37.7 98 -18.8 92.8 -3C87.6 12.8 77.1 25.7 69.7 41.1C62.3 56.6 57.9 74.6 46.8 84.7C35.7 94.8 17.8 96.9 -0.4 97.6C-18.7 98.3 -37.3 97.7 -49.2 88C-61 78.3 -66 59.7 -77.3 43.5C-88.7 27.3 -106.3 13.7 -111.1 -2.7C-115.9 -19.2 -107.7 -38.3 -89.9 -43.2C-72 -48.1 -44.5 -38.7 -27.9 -42.7C-11.3 -46.8 -5.6 -64.4 8.4 -79C22.5 -93.6 45 -105.3 61.3 -101" fill="#fc4995"></path></g></svg>