<svg id="visual" viewBox="0 0 960 540" width="960" height="540" xmlns="http://www.w3.org/2000/svg" xmlns:xlink="http://www.w3.org/1999/xlink" version="1.1"><rect x="0" y="0" width="960" height="540" fill="#1c1f2e"></rect><g transform="translate(481.3770502189795 263.80741742550464)"><path d="M48.5 -84.8C63.2 -75.5 75.8 -63.2 87.8 -48.6C99.9 -34 111.4 -17 115.5 2.3C119.5 21.7 116.1 43.3 105.5 60.5C94.9 77.7 77.2 90.4 58.4 99.2C39.7 108 19.8 113 -0.7 114.2C-21.2 115.3 -42.3 112.7 -58.9 102.6C-75.5 92.5 -87.6 75 -97.6 56.7C-107.7 38.3 -115.9 19.2 -118.8 -1.7C-121.6 -22.5 -119.3 -45 -107.8 -60.9C-96.3 -76.8 -75.6 -86 -56.2 -92.6C-36.7 -99.2 -18.3 -103.1 -0.7 -101.8C16.9 -100.6 33.8 -94.1 48.5 -84.8" fill="#fc4995"></path></g></svg>