<svg id="visual" viewBox="0 0 960 540" width="960" height="540" xmlns="http://www.w3.org/2000/svg" xmlns:xlink="http://www.w3.org/1999/xlink" version="1.1"><rect x="0" y="0" width="960" height="540" fill="#1c1f2e"></rect><g transform="translate(473.0289684271116 260.3900307307189)"><path d="M20.9 -37.2C29.1 -31.4 39.2 -30 41.7 -24.5C44.2 -19 39 -9.5 50.2 6.5C61.5 22.5 89.2 45 94 63C98.8 81.1 80.6 94.7 61.2 103.3C41.7 111.8 20.8 115.4 2.2 111.7C-16.5 107.9 -33 96.8 -49.3 86.4C-65.6 76 -81.7 66.2 -80.8 52C-79.9 37.7 -62 18.8 -54.4 4.3C-46.9 -10.2 -49.9 -20.3 -53.7 -39.7C-57.6 -59 -62.3 -87.5 -53.5 -92.9C-44.7 -98.4 -22.3 -80.7 -8 -66.8C6.3 -53 12.7 -42.9 20.9 -37.2" fill="#fc4995"></path></g></svg>