<svg id="visual" viewBox="0 0 960 540" width="960" height="540" xmlns="http://www.w3.org/2000/svg" xmlns:xlink="http://www.w3.org/1999/xlink" version="1.1"><rect x="0" y="0" width="960" height="540" fill="#1c1f2e"></rect><g transform="translate(486.87374035425756 278.60404568953277)"><path d="M45.2 -82.4C51.7 -74.5 45.3 -48.5 50.8 -31.7C56.3 -15 73.7 -7.5 84.5 6.2C95.3 20 99.6 40 87.3 44.9C74.9 49.7 45.9 39.5 28.6 38C11.3 36.5 5.6 43.7 -4.9 52.3C-15.5 60.8 -31 70.7 -39.9 67.4C-48.9 64 -51.3 47.5 -66 34.1C-80.8 20.7 -107.9 10.3 -108.5 -0.3C-109.1 -11 -83.1 -22 -65.4 -30.4C-47.8 -38.7 -38.4 -44.5 -28.9 -50.7C-19.3 -56.8 -9.7 -63.4 4.8 -71.8C19.3 -80.2 38.7 -90.3 45.2 -82.4" fill="#fc4995"></path></g></svg>