<svg id="visual" viewBox="0 0 900 600" width="900" height="600" xmlns="http://www.w3.org/2000/svg" xmlns:xlink="http://www.w3.org/1999/xlink" version="1.1"><g transform="translate(436.42896766135925 318.7736908718868)"><path d="M101.8 -179.9C141 -153.6 188.3 -144.8 210.2 -117.7C232 -90.7 228.5 -45.3 232.6 2.3C236.6 50 248.2 100 231.6 136.2C215 172.5 170.3 194.9 127 204.7C83.7 214.6 41.8 211.8 -0.7 212.9C-43.2 214.1 -86.3 219.2 -113.3 200C-140.3 180.7 -151.1 137.1 -166.4 99.7C-181.6 62.3 -201.3 31.2 -209.3 -4.6C-217.2 -40.3 -213.4 -80.7 -193.2 -109.5C-173.1 -138.4 -136.5 -155.8 -101.6 -184.6C-66.7 -213.5 -33.3 -253.7 -1 -251.9C31.3 -250.1 62.5 -206.3 101.8 -179.9" fill="#fc4995"></path></g></svg>