<svg id="visual" viewBox="0 0 960 540" width="960" height="540" xmlns="http://www.w3.org/2000/svg" xmlns:xlink="http://www.w3.org/1999/xlink" version="1.1"><rect x="0" y="0" width="960" height="540" fill="#1c1f2e"></rect><g transform="translate(495.0754469851786 273.64309705697696)"><path d="M37.3 -69.1C51.6 -56.3 68.7 -52.9 68.5 -43C68.4 -33 51.1 -16.5 51.2 0.1C51.4 16.7 69 33.3 68.5 42.3C68.1 51.2 49.5 52.5 35.1 54.6C20.7 56.8 10.3 59.9 -6.1 70.4C-22.5 81 -45 98.9 -52.4 92.7C-59.7 86.4 -51.9 56 -57.9 36.5C-63.8 17 -83.4 8.5 -92.6 -5.3C-101.9 -19.2 -100.7 -38.3 -87.6 -45.4C-74.6 -52.5 -49.5 -47.5 -32.9 -58.9C-16.3 -70.3 -8.2 -98.1 1.7 -101C11.5 -103.9 23 -81.8 37.3 -69.1" fill="#fc4995"></path></g></svg>