<svg id="visual" viewBox="0 0 900 600" width="900" height="600" xmlns="http://www.w3.org/2000/svg" xmlns:xlink="http://www.w3.org/1999/xlink" version="1.1"><path d="M0 118L13.7 116C27.3 114 54.7 110 82 106.8C109.3 103.7 136.7 101.3 163.8 104.3C191 107.3 218 115.7 245.2 117.3C272.3 119 299.7 114 327 114.2C354.3 114.3 381.7 119.7 409 119.7C436.3 119.7 463.7 114.3 491 110.5C518.3 106.7 545.7 104.3 573 104.3C600.3 104.3 627.7 106.7 654.8 104.5C682 102.3 709 95.7 736.2 97C763.3 98.3 790.7 107.7 818 114.3C845.3 121 872.7 125 886.3 127L900 129L900 0L886.3 0C872.7 0 845.3 0 818 0C790.7 0 763.3 0 736.2 0C709 0 682 0 654.8 0C627.7 0 600.3 0 573 0C545.7 0 518.3 0 491 0C463.7 0 436.3 0 409 0C381.7 0 354.3 0 327 0C299.7 0 272.3 0 245.2 0C218 0 191 0 163.8 0C136.7 0 109.3 0 82 0C54.7 0 27.3 0 13.7 0L0 0Z" fill="#fc4995"></path><path d="M0 84L13.7 86.7C27.3 89.3 54.7 94.7 82 96.5C109.3 98.3 136.7 96.7 163.8 98.7C191 100.7 218 106.3 245.2 105.2C272.3 104 299.7 96 327 94.8C354.3 93.7 381.7 99.3 409 98.5C436.3 97.7 463.7 90.3 491 86.7C518.3 83 545.7 83 573 88C600.3 93 627.7 103 654.8 100C682 97 709 81 736.2 72.8C763.3 64.7 790.7 64.3 818 72.7C845.3 81 872.7 98 886.3 106.5L900 115L900 0L886.3 0C872.7 0 845.3 0 818 0C790.7 0 763.3 0 736.2 0C709 0 682 0 654.8 0C627.7 0 600.3 0 573 0C545.7 0 518.3 0 491 0C463.7 0 436.3 0 409 0C381.7 0 354.3 0 327 0C299.7 0 272.3 0 245.2 0C218 0 191 0 163.8 0C136.7 0 109.3 0 82 0C54.7 0 27.3 0 13.7 0L0 0Z" fill="#dd358d"></path><path d="M0 60L13.7 63.8C27.3 67.7 54.7 75.3 82 74.5C109.3 73.7 136.7 64.3 163.8 57.8C191 51.3 218 47.7 245.2 45.3C272.3 43 299.7 42 327 46.2C354.3 50.3 381.7 59.7 409 64.5C436.3 69.3 463.7 69.7 491 71.3C518.3 73 545.7 76 573 71C600.3 66 627.7 53 654.8 48.3C682 43.7 709 47.3 736.2 47.3C763.3 47.3 790.7 43.7 818 43.7C845.3 43.7 872.7 47.3 886.3 49.2L900 51L900 0L886.3 0C872.7 0 845.3 0 818 0C790.7 0 763.3 0 736.2 0C709 0 682 0 654.8 0C627.7 0 600.3 0 573 0C545.7 0 518.3 0 491 0C463.7 0 436.3 0 409 0C381.7 0 354.3 0 327 0C299.7 0 272.3 0 245.2 0C218 0 191 0 163.8 0C136.7 0 109.3 0 82 0C54.7 0 27.3 0 13.7 0L0 0Z" fill="#bd2183"></path><path d="M0 27L13.7 27.8C27.3 28.7 54.7 30.3 82 29.2C109.3 28 136.7 24 163.8 21.7C191 19.3 218 18.7 245.2 22.5C272.3 26.3 299.7 34.7 327 37.3C354.3 40 381.7 37 409 36.5C436.3 36 463.7 38 491 39.2C518.3 40.3 545.7 40.7 573 39.7C600.3 38.7 627.7 36.3 654.8 35.7C682 35 709 36 736.2 33.8C763.3 31.7 790.7 26.3 818 23.7C845.3 21 872.7 21 886.3 21L900 21L900 0L886.3 0C872.7 0 845.3 0 818 0C790.7 0 763.3 0 736.2 0C709 0 682 0 654.8 0C627.7 0 600.3 0 573 0C545.7 0 518.3 0 491 0C463.7 0 436.3 0 409 0C381.7 0 354.3 0 327 0C299.7 0 272.3 0 245.2 0C218 0 191 0 163.8 0C136.7 0 109.3 0 82 0C54.7 0 27.3 0 13.7 0L0 0Z" fill="#9d0b79"></path></svg>