<svg id="visual" viewBox="0 0 960 540" width="960" height="540" xmlns="http://www.w3.org/2000/svg" xmlns:xlink="http://www.w3.org/1999/xlink" version="1.1"><rect x="0" y="0" width="960" height="540" fill="#1c1f2e"></rect><path d="M0 127L13.3 122.3C26.7 117.7 53.3 108.3 80 100.5C106.7 92.7 133.3 86.3 160 91.7C186.7 97 213.3 114 240 119C266.7 124 293.3 117 320 113.8C346.7 110.7 373.3 111.3 400 113.5C426.7 115.7 453.3 119.3 480 121C506.7 122.7 533.3 122.3 560 117.7C586.7 113 613.3 104 640 103.5C666.7 103 693.3 111 720 107.8C746.7 104.7 773.3 90.3 800 90.7C826.7 91 853.3 106 880 111C906.7 116 933.3 111 946.7 108.5L960 106L960 0L946.7 0C933.3 0 906.7 0 880 0C853.3 0 826.7 0 800 0C773.3 0 746.7 0 720 0C693.3 0 666.7 0 640 0C613.3 0 586.7 0 560 0C533.3 0 506.7 0 480 0C453.3 0 426.7 0 400 0C373.3 0 346.7 0 320 0C293.3 0 266.7 0 240 0C213.3 0 186.7 0 160 0C133.3 0 106.7 0 80 0C53.3 0 26.7 0 13.3 0L0 0Z" fill="#fc4995"></path><path d="M0 80L13.3 79.7C26.7 79.3 53.3 78.7 80 77.3C106.7 76 133.3 74 160 74.5C186.7 75 213.3 78 240 73.2C266.7 68.3 293.3 55.7 320 49.7C346.7 43.7 373.3 44.3 400 50.7C426.7 57 453.3 69 480 73.8C506.7 78.7 533.3 76.3 560 72.2C586.7 68 613.3 62 640 65.2C666.7 68.3 693.3 80.7 720 78.3C746.7 76 773.3 59 800 52.2C826.7 45.3 853.3 48.7 880 50.7C906.7 52.7 933.3 53.3 946.7 53.7L960 54L960 0L946.7 0C933.3 0 906.7 0 880 0C853.3 0 826.7 0 800 0C773.3 0 746.7 0 720 0C693.3 0 666.7 0 640 0C613.3 0 586.7 0 560 0C533.3 0 506.7 0 480 0C453.3 0 426.7 0 400 0C373.3 0 346.7 0 320 0C293.3 0 266.7 0 240 0C213.3 0 186.7 0 160 0C133.3 0 106.7 0 80 0C53.3 0 26.7 0 13.3 0L0 0Z" fill="#dd358d"></path><path d="M0 41L13.3 44.8C26.7 48.7 53.3 56.3 80 62.7C106.7 69 133.3 74 160 71.7C186.7 69.3 213.3 59.7 240 58.5C266.7 57.3 293.3 64.7 320 63.2C346.7 61.7 373.3 51.3 400 50.7C426.7 50 453.3 59 480 63.3C506.7 67.7 533.3 67.3 560 64.8C586.7 62.3 613.3 57.7 640 54C666.7 50.3 693.3 47.7 720 44C746.7 40.3 773.3 35.7 800 37.3C826.7 39 853.3 47 880 47.3C906.7 47.7 933.3 40.3 946.7 36.7L960 33L960 0L946.7 0C933.3 0 906.7 0 880 0C853.3 0 826.7 0 800 0C773.3 0 746.7 0 720 0C693.3 0 666.7 0 640 0C613.3 0 586.7 0 560 0C533.3 0 506.7 0 480 0C453.3 0 426.7 0 400 0C373.3 0 346.7 0 320 0C293.3 0 266.7 0 240 0C213.3 0 186.7 0 160 0C133.3 0 106.7 0 80 0C53.3 0 26.7 0 13.3 0L0 0Z" fill="#bd2183"></path><path d="M0 19L13.3 18.3C26.7 17.7 53.3 16.3 80 17.3C106.7 18.3 133.3 21.7 160 27.2C186.7 32.7 213.3 40.3 240 40.8C266.7 41.3 293.3 34.7 320 30.2C346.7 25.7 373.3 23.3 400 23.5C426.7 23.7 453.3 26.3 480 27.8C506.7 29.3 533.3 29.7 560 27C586.7 24.3 613.3 18.7 640 17.3C666.7 16 693.3 19 720 20.5C746.7 22 773.3 22 800 26.7C826.7 31.3 853.3 40.7 880 45.2C906.7 49.7 933.3 49.3 946.7 49.2L960 49L960 0L946.7 0C933.3 0 906.7 0 880 0C853.3 0 826.7 0 800 0C773.3 0 746.7 0 720 0C693.3 0 666.7 0 640 0C613.3 0 586.7 0 560 0C533.3 0 506.7 0 480 0C453.3 0 426.7 0 400 0C373.3 0 346.7 0 320 0C293.3 0 266.7 0 240 0C213.3 0 186.7 0 160 0C133.3 0 106.7 0 80 0C53.3 0 26.7 0 13.3 0L0 0Z" fill="#9d0b79"></path></svg>